HIERARCHY
ROOT Hips
{
	OFFSET -3.958830 18.904000 13.208200
	CHANNELS 6 Xposition Yposition Zposition Zrotation Yrotation Xrotation 
	JOINT LHipJoint
	{
		OFFSET 0.000000 0.000000 0.000000
		CHANNELS 3 Zrotation Yrotation Xrotation
		JOINT LeftUpLeg
		{
			OFFSET 1.800000 -1.400000 0.085000
			CHANNELS 3 Zrotation Yrotation Xrotation
			JOINT LeftLeg
			{
				OFFSET 2.215000 -6.000000 0.000000
				CHANNELS 3 Zrotation Yrotation Xrotation
				JOINT LeftFoot
				{
					OFFSET 2.500000 -6.900000 0.000000
					CHANNELS 3 Zrotation Yrotation Xrotation
					JOINT LeftToeBase
					{
						OFFSET 0.200000 -0.500000 1.950000
						CHANNELS 3 Zrotation Yrotation Xrotation
						End Site
						{
							OFFSET 0.000000 0.000000 0.000000
						}
					}
				}
			}
		}
	}
	JOINT RHipJoint
	{
		OFFSET 0.000000 0.000000 0.000000
		CHANNELS 3 Zrotation Yrotation Xrotation
		JOINT RightUpLeg
		{
			OFFSET -1.800000 -1.400000 0.085000
			CHANNELS 3 Zrotation Yrotation Xrotation
			JOINT RightLeg
			{
				OFFSET -2.215000 -6.000000 0.000000
				CHANNELS 3 Zrotation Yrotation Xrotation
				JOINT RightFoot
				{
					OFFSET -2.500000 -6.900000 0.000000
					CHANNELS 3 Zrotation Yrotation Xrotation
					JOINT RightToeBase
					{
						OFFSET -0.200000 -0.500000 1.950000
						CHANNELS 3 Zrotation Yrotation Xrotation
						End Site
						{
							OFFSET 0.000000 0.000000 0.000000
						}
					}
				}
			}
		}
	}
	JOINT LowerBack
	{
		OFFSET 0.000000 0.000000 0.000000
		CHANNELS 3 Zrotation Yrotation Xrotation
		JOINT Spine
		{
			OFFSET -0.087000 1.940000 -0.288900
			CHANNELS 3 Zrotation Yrotation Xrotation
			JOINT Spine1
			{
				OFFSET 0.000000 1.950000 0.060000
				CHANNELS 3 Zrotation Yrotation Xrotation
				JOINT Neck
				{
					OFFSET 0.000000 0.000000 0.000000
					CHANNELS 3 Zrotation Yrotation Xrotation
					JOINT Neck1
					{
						OFFSET 0.000000 1.600000 0.340000
						CHANNELS 3 Zrotation Yrotation Xrotation
						JOINT Head
						{
							OFFSET 0.000000 1.667000 -0.240000
							CHANNELS 3 Zrotation Yrotation Xrotation
							End Site
							{
								OFFSET 0.000000 0.000000 0.000000
							}
						}
					}
				}
				JOINT LeftShoulder
				{
					OFFSET 0.000000 0.000000 0.000000
					CHANNELS 3 Zrotation Yrotation Xrotation
					JOINT LeftArm
					{
						OFFSET 2.700000 1.550000 -0.730000
						CHANNELS 3 Zrotation Yrotation Xrotation
						JOINT LeftForeArm
						{
							OFFSET 5.450000 0.000000 0.000000
							CHANNELS 3 Zrotation Yrotation Xrotation
							JOINT LeftHand
							{
								OFFSET 3.450000 0.000000 0.000000
								CHANNELS 3 Zrotation Yrotation Xrotation
								JOINT LeftHandIndex1
								{
									OFFSET 0.750000 0.000000 0.000000
									CHANNELS 3 Zrotation Yrotation Xrotation
									End Site
									{
										OFFSET 0.000000 0.000000 0.000000
									}
								}
							}
						}
					}
				}
				JOINT RightShoulder
				{
					OFFSET 0.000000 0.000000 0.000000
					CHANNELS 3 Zrotation Yrotation Xrotation
					JOINT RightArm
					{
						OFFSET -2.700000 1.550000 -0.730000
						CHANNELS 3 Zrotation Yrotation Xrotation
						JOINT RightForeArm
						{
							OFFSET -5.450000 0.000000 0.000000
							CHANNELS 3 Zrotation Yrotation Xrotation
							JOINT RightHand
							{
								OFFSET -3.450000 0.000000 0.000000
								CHANNELS 3 Zrotation Yrotation Xrotation
								JOINT RightHandIndex1
								{
									OFFSET -0.750000 0.000000 0.000000
									CHANNELS 3 Zrotation Yrotation Xrotation
									End Site
									{
										OFFSET 0.000000 0.000000 0.000000
									}
								}
							}
						}
					}
				}
			}
		}
	}
}
MOTION
Frames: 11
Frame Time: 0.016667
-1.743340 18.307950 2.416520 -14.324456 -0.243154 -8.935541 -15.044301 12.941329 1.736117 14.145957 -0.468378 -23.988301 9.097410 4.163821 30.946667 -1.030839 5.769929 2.547823 -0.543890 -0.797270 -0.642540 18.565408 -8.865157 5.555362 -3.574153 16.696124 -36.618772 24.605541 -36.707994 76.307579 -3.285137 -15.963711 -0.461052 -0.312070 1.049110 0.183660 -4.133511 -2.454591 -8.786715 11.230131 -5.397143 42.573768 -6.929138 0.065436 7.123307 0.693482 -5.645966 -13.382838 -13.371357 7.016275 39.205610 7.170700 -0.627910 -18.787920 -20.515610 -23.891849 5.852975 -26.191094 -4.958502 -16.859908 23.459702 -70.805582 -22.577739 -3.818077 2.152829 1.003840 0.239810 -0.162440 0.054480 19.320106 27.846362 12.027576 42.405691 7.287218 -23.762113 -4.123152 75.286429 -11.479116 1.445452 -0.639134 -0.802240 0.917330 0.916090 -0.021080 
-1.746410 18.301250 2.413860 -14.151426 -0.222671 -8.786812 -15.055790 12.910771 1.814562 14.736297 -0.505112 -24.369543 8.036312 4.615665 31.316121 -1.009866 5.873535 2.501735 -0.544630 -0.790810 -0.647370 18.555135 -8.863034 5.499853 -3.974416 16.461154 -36.358082 24.600776 -36.037648 75.300848 -3.218020 -15.732830 -0.410109 -0.314370 1.047020 0.181960 -4.104322 -2.463030 -8.804543 10.957053 -5.218553 42.496735 -6.809666 0.179195 7.239775 0.718030 -5.526261 -13.488142 -13.116385 6.894509 39.144888 7.086330 -0.607320 -18.604970 -20.225284 -24.033819 5.964531 -26.363385 -4.954513 -16.956159 24.399889 -70.786014 -23.201385 -3.811359 2.142703 0.994040 0.241650 -0.162890 0.056650 18.990028 27.993303 12.102257 42.505035 7.242153 -23.959469 -5.536696 75.530193 -12.548387 1.439713 -0.624274 -0.794250 0.911380 0.911320 -0.016500 
-1.751390 18.276850 2.408490 -13.663536 -0.074398 -8.295030 -15.085381 12.818139 2.010161 15.685407 -0.705747 -25.422978 6.042462 5.514395 32.345952 -0.953295 6.139608 2.397457 -0.543910 -0.775430 -0.653400 18.534845 -8.843495 5.378026 -4.936551 15.906588 -36.079434 24.454626 -34.626236 73.303142 -3.075125 -15.260176 -0.303859 -0.315970 1.049090 0.172660 -4.039867 -2.484087 -8.846303 10.338731 -4.813151 42.097941 -6.460970 0.380596 7.410904 0.701775 -5.331529 -13.569756 -12.644804 6.596437 38.728554 6.984560 -0.650900 -18.108120 -19.440610 -24.006435 6.100043 -27.038266 -5.332411 -16.974245 25.873443 -70.876250 -24.241050 -3.798074 2.121277 0.968090 0.247090 -0.168330 0.066370 18.251518 27.974899 12.114589 42.760010 7.244953 -24.130046 -8.079912 76.018334 -14.431844 1.436257 -0.600084 -0.781510 0.906040 0.894530 -0.004330 
-1.758770 18.239810 2.402640 -13.042454 0.170406 -7.698848 -15.128544 12.698370 2.293866 16.904717 -0.990680 -26.678909 3.502008 6.696826 33.507929 -0.943909 6.593618 2.225626 -0.592810 -0.837850 -0.673890 18.504780 -8.833721 5.177666 -5.977112 15.101720 -35.398119 23.924428 -32.439323 70.428578 -2.831552 -14.542016 -0.147591 -0.329940 1.083340 0.156670 -3.945651 -2.517832 -8.886843 9.638744 -4.281155 41.585137 -6.005147 0.714852 7.645820 0.705700 -5.118334 -13.481294 -12.076632 6.049649 37.968103 6.441470 -0.840510 -17.842950 -18.343851 -23.660594 6.044322 -28.012417 -6.356705 -16.713391 27.222044 -70.768898 -25.140279 -3.830450 2.037707 0.971340 0.272070 -0.199860 0.050180 17.144380 27.636917 12.040814 43.188154 7.289922 -24.294158 -10.819622 76.613779 -16.463349 1.409119 -0.522926 -0.826160 0.935840 0.929050 -0.017150 
-1.762360 18.192660 2.396480 -12.240880 0.105198 -6.934219 -15.172994 12.523547 2.663372 18.440823 -1.285844 -27.975163 0.250866 8.241320 34.674647 -0.886103 7.171702 2.003118 -0.610230 -0.864620 -0.676050 18.479993 -8.837731 4.920199 -7.060665 14.261770 -34.601678 22.827136 -29.550595 67.037172 -2.541247 -13.623683 0.056699 -0.339330 1.097960 0.157850 -3.857852 -2.487270 -8.934899 8.938136 -3.689966 40.877336 -5.696295 1.112586 7.928225 0.728015 -4.902648 -13.369127 -11.499954 5.649236 37.263544 6.009410 -0.878360 -17.657560 -17.127550 -23.123911 5.986051 -29.229667 -7.420689 -16.398519 28.879722 -70.105945 -25.962829 -3.845424 1.986633 0.965640 0.287450 -0.215370 0.043120 15.866952 27.152109 11.889496 43.844980 7.631649 -24.309634 -13.565000 76.990455 -18.450746 1.390747 -0.467895 -0.837850 0.938790 0.940840 -0.022950 
-1.763340 18.141090 2.386430 -11.472838 0.089711 -6.178983 -15.215846 12.307968 3.115749 20.260871 -1.638539 -29.292180 -3.420809 9.973930 35.642619 -0.795024 7.848847 1.742859 -0.631160 -0.889460 -0.683690 18.460391 -8.856001 4.596855 -8.113369 13.191777 -33.527565 21.566683 -26.550678 63.096635 -2.218567 -12.575862 0.294662 -0.351970 1.108110 0.163380 -3.782603 -2.434526 -8.984519 8.451388 -3.313395 40.332553 -5.455088 1.395260 8.189311 0.694497 -4.928733 -13.317593 -11.443071 5.358513 36.504902 5.962870 -1.060670 -17.828520 -15.978373 -22.650308 5.966561 -30.563099 -8.524600 -16.160199 31.463207 -69.357065 -27.380025 -3.854896 1.925286 0.957550 0.294070 -0.222770 0.031490 14.781009 26.811127 11.797201 44.270227 7.807196 -24.446845 -16.573900 77.535796 -20.714861 1.379809 -0.400694 -0.840020 0.937560 0.956660 -0.020710 
-1.764250 18.080550 2.371820 -10.713018 0.188310 -5.407215 -15.262904 12.081670 3.601259 22.206222 -1.975936 -30.435747 -7.383339 11.648107 35.724236 -0.706461 8.476059 1.503097 -0.651710 -0.910840 -0.698420 18.438025 -8.867627 4.257980 -9.230570 12.037845 -32.457572 20.545599 -23.824082 58.764047 -1.895144 -11.509902 0.557042 -0.363470 1.114900 0.170490 -3.698858 -2.399126 -9.038767 8.008742 -3.023290 39.918897 -5.220686 1.591654 8.277001 0.692270 -4.898045 -13.205084 -11.307101 5.104445 35.863476 5.897170 -1.141430 -18.233650 -15.219504 -22.173641 5.880250 -31.443870 -9.551571 -15.801076 33.686175 -68.579953 -28.430808 -3.867785 1.874366 0.954880 0.301840 -0.229490 0.018870 14.009725 26.380001 11.652512 44.414743 7.903185 -24.533854 -19.872899 78.185377 -23.189558 1.358869 -0.319915 -0.841690 0.931970 0.975170 -0.021000 
-1.766390 18.001780 2.361870 -9.911799 -0.101727 -4.645139 -15.331597 11.854807 4.097163 24.367526 -2.153984 -31.293135 -11.593624 13.381456 35.352357 -0.612748 9.144776 1.263958 -0.670430 -0.939840 -0.702590 18.403403 -8.826634 3.937200 -10.424136 11.068907 -31.504844 19.823606 -21.509238 54.546310 -1.598466 -10.528481 0.823963 -0.371000 1.126460 0.163540 -3.566919 -2.427752 -9.107276 7.291039 -2.479673 39.515752 -4.711420 1.966351 8.276386 0.721709 -4.799062 -13.023838 -10.975397 4.947967 35.149110 5.592880 -0.962410 -18.611270 -14.733319 -21.532320 5.732231 -32.269779 -10.355393 -15.406913 35.904297 -68.269080 -29.679480 -3.881506 1.803990 0.962810 0.312200 -0.245530 0.009710 13.446105 25.873222 11.448159 44.047990 7.925362 -24.433952 -22.221954 78.832638 -24.956061 1.332104 -0.250181 -0.864040 0.942470 0.991130 -0.034330 
-1.771590 17.905800 2.354440 -9.122072 -0.402127 -3.616591 -15.405927 11.547513 4.613482 26.712692 -2.232934 -32.204840 -16.202513 15.096235 34.354408 -0.467564 9.787895 1.041659 -0.682900 -0.960250 -0.707720 18.382123 -8.712960 3.686656 -11.908774 10.293031 -31.221533 19.817813 -19.922110 50.698419 -1.361540 -9.760398 1.025385 -0.381990 1.130200 0.175970 -3.448299 -2.416837 -9.220453 6.643836 -1.974314 38.790355 -4.347340 2.285018 8.081452 0.799563 -4.507353 -12.930562 -10.219450 4.869775 34.392171 5.156680 -0.619820 -17.848150 -14.801635 -21.120834 5.698031 -32.473056 -10.359712 -15.159796 38.175273 -68.785668 -31.289003 -3.891823 1.781335 0.941840 0.326790 -0.259310 0.006050 13.342497 25.468880 11.320576 43.556564 7.711529 -24.276973 -24.633785 79.544187 -26.851257 1.323184 -0.213472 -0.858390 0.914290 0.994300 -0.035410 
-1.777130 17.803510 2.348420 -8.368895 -0.364951 -2.956790 -15.467351 11.274939 5.063301 28.729635 -2.369693 -32.947626 -20.314745 16.497840 33.447954 -0.331708 10.340777 0.863846 -0.689450 -0.975550 -0.704950 18.366758 -8.620511 3.467263 -13.462627 9.451408 -30.752579 20.286383 -18.877448 47.167923 -1.185448 -9.154617 1.186777 -0.389840 1.130480 0.187600 -3.355648 -2.396096 -9.319609 6.132836 -1.791020 38.570280 -4.158942 2.326365 7.723253 0.918215 -4.161720 -12.712425 -9.394274 4.794862 33.860808 4.552140 -0.171650 -17.641490 -15.465181 -20.824778 5.595346 -31.782603 -9.791355 -15.080528 40.665771 -70.002150 -33.369544 -3.897642 1.735072 0.936200 0.335100 -0.264280 0.004870 13.734928 25.059083 11.077540 42.676926 7.705332 -24.009682 -26.836049 80.228147 -28.549605 1.313629 -0.166914 -0.858340 0.896200 0.994970 -0.040950 
-1.784220 17.698690 2.339550 -7.438685 -0.124091 -2.591567 -15.526680 11.035617 5.425232 30.239192 -2.618240 -33.541624 -24.138413 17.702193 32.631713 -0.217985 10.823314 0.722756 -0.695570 -1.003400 -0.691970 18.348886 -8.489112 3.335307 -15.560372 8.669503 -30.513403 21.589297 -18.624542 44.383220 -1.087805 -8.842658 1.269616 -0.398180 1.136710 0.192070 -3.258655 -2.437992 -9.425873 5.514691 -1.647847 38.763879 -3.931901 2.306053 7.350130 1.050086 -3.842783 -12.542848 -8.713220 4.701454 33.598975 3.900240 0.193120 -17.663340 -16.373721 -20.881008 5.517630 -30.580665 -9.038891 -15.110313 43.381640 -71.326691 -35.740794 -3.905017 1.652203 0.951490 0.342380 -0.272180 0.003340 14.360826 25.002602 10.911668 41.362505 7.485951 -23.994368 -29.899815 81.005692 -30.967967 1.284857 -0.071266 -0.877430 0.897470 1.000010 -0.057920 
